<svg width="35" height="35" viewBox="0 0 35 35" fill="none" xmlns="http://www.w3.org/2000/svg">
<path d="M34.7688 16.5167L29.0936 4.95127C29.0209 4.80328 28.8703 4.70884 28.7054 4.70799C28.543 4.70799 28.3885 4.79937 28.3145 4.94694L23.7104 14.0565L17.8524 2.24375C17.7793 2.09619 17.6291 2.00269 17.4642 2.00175C17.2854 1.98475 17.1478 2.09355 17.0742 2.24069L10.5908 15.0687L6.00759 6.00012C5.93363 5.85392 5.78301 5.76118 5.61895 5.76118C5.6181 5.76118 5.61768 5.76118 5.61674 5.76118C5.45184 5.76203 5.30121 5.85604 5.22853 6.00403L0.0451318 16.5149C-0.061462 16.7308 0.0272812 16.9914 0.242679 17.0977C0.304901 17.1281 0.370183 17.1425 0.434616 17.1425C0.595187 17.1425 0.749722 17.0532 0.825035 16.8996L2.10977 14.2949L2.93098 15.759C3.008 15.8961 3.15335 15.9813 3.31052 15.9813C3.46769 15.9813 3.61296 15.8965 3.69006 15.7594L4.49997 14.3166L5.30861 15.7594C5.38562 15.8965 5.53055 15.9818 5.68814 15.9818C5.84523 15.9818 5.99058 15.8969 6.06768 15.7598L6.87759 14.3166L7.68844 15.7598C7.76587 15.8969 7.9108 15.9818 8.06797 15.9818C8.22514 15.9818 8.36999 15.8969 8.44751 15.7598L9.24527 14.3397L10.1018 16.0344L9.86069 16.5119C9.75231 16.7264 9.83808 16.9884 10.0526 17.0968C10.2676 17.2056 10.5297 17.1189 10.6375 16.9048L13.8333 10.5811L14.6311 12.0017C14.7856 12.2759 15.2356 12.2759 15.3901 12.0017L16.2009 10.5585L17.0108 12.0017C17.1649 12.2759 17.6162 12.2759 17.7698 12.0017L18.5789 10.5589L19.3883 12.0017C19.4654 12.1388 19.6107 12.224 19.7679 12.224C19.925 12.224 20.0703 12.1392 20.1474 12.0017L20.9804 10.5168L24.1471 16.9023C24.2228 17.0554 24.3768 17.1443 24.5371 17.1443C24.6019 17.1443 24.668 17.1299 24.7298 17.0991C24.9452 16.992 25.0332 16.7308 24.9261 16.5158L24.1906 15.0322L25.0723 13.2874L25.8701 14.708C26.0242 14.9822 26.4755 14.9822 26.6291 14.708L27.4399 13.2644L28.2498 14.7076C28.4038 14.9822 28.8552 14.9822 29.0088 14.7076L29.8179 13.2648L30.6274 14.7076C30.7044 14.8447 30.8497 14.9299 31.0069 14.9299C31.164 14.9299 31.3093 14.8451 31.3864 14.7076L32.1994 13.2588L33.9881 16.9007C34.0639 17.0548 34.2183 17.1439 34.379 17.1439C34.443 17.1439 34.5087 17.1296 34.5701 17.0991C34.7858 16.9932 34.8745 16.7321 34.7688 16.5167ZM8.06916 14.6579L7.25832 13.2142C7.10378 12.9396 6.65293 12.94 6.49933 13.2142L5.68942 14.657L4.88078 13.2142C4.80377 13.0771 4.65884 12.9919 4.50125 12.9919C4.34416 12.9919 4.19881 13.0767 4.12171 13.2138L3.3118 14.6566L2.57763 13.3479L5.62414 7.17045L8.77426 13.4031L8.06916 14.6579ZM19.7704 10.898L18.9609 9.45524C18.8069 9.1806 18.3556 9.1806 18.202 9.45524L17.3929 10.898L16.583 9.45524C16.506 9.31813 16.3606 9.2333 16.2034 9.2333C16.0463 9.2333 15.9014 9.31813 15.8239 9.45524L15.0131 10.8988L14.3085 9.64454L17.4594 3.40966L20.5156 9.57144L19.7704 10.898ZM31.0107 13.6037L30.2012 12.161C30.0472 11.8863 29.5958 11.8863 29.4422 12.161L28.6332 13.6037L27.8233 12.161C27.7463 12.0239 27.6009 11.9386 27.4437 11.9386C27.2867 11.9386 27.1413 12.0234 27.0642 12.1605L26.2534 13.6042L25.5488 12.3499L28.698 6.11845L31.7379 12.3085L31.0107 13.6037Z" fill="white"/>
<path d="M32.2223 28.3106V26.8095L34.1598 28.8246C34.2452 28.9138 34.3592 28.9582 34.4737 28.9582C34.5821 28.9582 34.6909 28.9177 34.7753 28.8368C34.9481 28.6701 34.9537 28.3946 34.787 28.2214L32.2219 25.5535V24.052L34.1612 26.0675C34.3279 26.2407 34.603 26.2463 34.7766 26.0797C34.9494 25.9134 34.955 25.6375 34.7884 25.4642L32.1018 22.6698C32.1009 22.6689 32.0995 22.6685 32.0987 22.6675C32.0609 22.6288 32.0156 22.5979 31.9655 22.5757C31.9629 22.5745 31.9612 22.5718 31.9585 22.571C31.9063 22.5488 31.8489 22.5361 31.7883 22.5361C31.7278 22.5361 31.6704 22.5487 31.6182 22.571C31.6151 22.5723 31.613 22.5753 31.6099 22.5767C31.5603 22.5993 31.5155 22.6294 31.4781 22.6681C31.4772 22.6689 31.4759 22.6693 31.475 22.6703L28.788 25.4648C28.6213 25.6381 28.627 25.9136 28.7997 26.0802C28.8841 26.1616 28.9929 26.2016 29.1013 26.2016C29.2158 26.2016 29.3294 26.1568 29.4152 26.068L31.3531 24.0525V25.5536L28.7876 28.2215C28.6209 28.3947 28.6266 28.6702 28.7993 28.8369C28.9725 29.0036 29.248 28.9979 29.4147 28.8252L31.3527 26.8097V28.3107L28.7871 30.9786C28.6205 31.1519 28.6262 31.4274 28.7989 31.5941C28.8833 31.6754 28.9921 31.7154 29.1005 31.7154C29.215 31.7154 29.3285 31.6706 29.4143 31.5818L31.3523 29.5663V34.5635C31.3523 34.8037 31.5469 34.9987 31.7875 34.9987C32.0281 34.9987 32.2227 34.8037 32.2227 34.5635V29.5663L34.1603 31.5818C34.327 31.7551 34.602 31.7607 34.7757 31.594C34.9485 31.4277 34.9541 31.1518 34.7874 30.9785L32.2223 28.3106Z" fill="white"/>
<path d="M26.0631 25.4619L23.4979 22.794V21.2929L25.4355 23.308C25.5208 23.3973 25.6348 23.4417 25.7493 23.4417C25.8577 23.4417 25.9665 23.4012 26.0509 23.3203C26.2237 23.1536 26.2293 22.8781 26.0626 22.7048L23.4975 20.0369V18.5355L25.4351 20.5505C25.5203 20.6398 25.6344 20.6842 25.7488 20.6842C25.8572 20.6842 25.966 20.6437 26.0504 20.5627C26.2232 20.396 26.2288 20.1205 26.0621 19.9473L23.3755 17.1532C23.3747 17.1524 23.3733 17.1519 23.3725 17.151C23.3346 17.1122 23.2893 17.0814 23.2393 17.0592C23.2366 17.0579 23.2349 17.0553 23.2323 17.0544C23.1801 17.0323 23.1226 17.0196 23.0621 17.0196C23.0016 17.0196 22.9441 17.0322 22.8919 17.0544C22.888 17.0561 22.885 17.0596 22.8811 17.0618C22.8328 17.084 22.7883 17.1136 22.7518 17.1511C22.7509 17.1519 22.7491 17.1524 22.7483 17.1533L20.0613 19.9474C19.8946 20.1206 19.9003 20.3961 20.073 20.5628C20.2467 20.7295 20.5222 20.7238 20.6884 20.551L22.6264 18.5355V20.0366L20.061 22.7044C19.8943 22.8777 19.9 23.1532 20.0727 23.3198C20.2464 23.4865 20.5219 23.4814 20.6882 23.3081L22.6261 21.2926V22.7937L20.0627 25.4624C19.896 25.6357 19.9017 25.9112 20.0744 26.0779C20.1589 26.1592 20.2677 26.1992 20.376 26.1992C20.4905 26.1992 20.6041 26.1544 20.6899 26.0656L22.6278 24.0501V29.0473C22.6278 29.2875 22.8224 29.4825 23.0631 29.4825C23.3037 29.4825 23.4983 29.2875 23.4983 29.0473V24.0497L25.4358 26.0652C25.6025 26.2384 25.8776 26.244 26.0512 26.0773C26.2241 25.9111 26.2297 25.6352 26.0631 25.4619Z" fill="white"/>
<path d="M17.5079 15.812C17.2672 15.812 17.0727 16.0069 17.0727 16.2472V16.3538C17.0727 16.5574 17.0352 16.7555 16.9621 16.9422C16.8743 17.1659 16.9843 17.4187 17.2081 17.5061C17.2598 17.5266 17.3138 17.5366 17.3669 17.5366C17.5402 17.5366 17.7047 17.4317 17.7721 17.2602C17.8857 16.9712 17.9432 16.6666 17.9432 16.3537V16.2471C17.9431 16.0069 17.7486 15.812 17.5079 15.812Z" fill="white"/>
<path d="M9.23242 17.968H7.54511L7.48501 17.9688C7.24437 17.9749 7.07377 18.1747 7.07981 18.4145C7.08593 18.6508 7.29741 18.8384 7.5333 18.8384C7.53721 18.8384 7.54112 18.8384 7.5446 18.8384H9.23191C9.47255 18.8384 9.66712 18.6434 9.66712 18.4032C9.66712 18.163 9.47315 17.968 9.23242 17.968Z" fill="white"/>
<path d="M12.7032 17.968H10.9676C10.7269 17.968 10.5323 18.163 10.5323 18.4032C10.5323 18.6434 10.7269 18.8384 10.9676 18.8384H12.7032C12.9439 18.8384 13.1385 18.6434 13.1385 18.4032C13.1385 18.163 12.9439 17.968 12.7032 17.968Z" fill="white"/>
<path d="M9.51898 26.3321H7.78339C7.54275 26.3321 7.34818 26.5271 7.34818 26.7673C7.34818 27.0075 7.54275 27.2025 7.78339 27.2025H9.51906C9.7597 27.2025 9.95428 27.0075 9.95428 26.7673C9.95428 26.5271 9.7597 26.3321 9.51898 26.3321Z" fill="white"/>
<path d="M11.956 30.5156H10.2204C9.97973 30.5156 9.78516 30.7106 9.78516 30.9508C9.78516 31.1911 9.97973 31.3861 10.2204 31.3861H11.956C12.1967 31.3861 12.3913 31.1911 12.3913 30.9508C12.3913 30.7106 12.1968 30.5156 11.956 30.5156Z" fill="white"/>
<path d="M8.48339 30.5156H6.74771C6.50707 30.5156 6.3125 30.7106 6.3125 30.9508C6.3125 31.1911 6.50707 31.3861 6.74771 31.3861H8.48339C8.72403 31.3861 8.9186 31.1911 8.9186 30.9508C8.9186 30.7106 8.72403 30.5156 8.48339 30.5156Z" fill="white"/>
<path d="M6.259 18.8013C6.07488 18.6459 5.80032 18.6695 5.64579 18.8535C5.26974 19.2996 5.06173 19.868 5.06131 20.4533C5.06131 20.5769 5.07041 20.6984 5.08826 20.8172C5.12005 21.0335 5.30586 21.1888 5.51829 21.1888C5.5392 21.1888 5.56096 21.1875 5.58178 21.184C5.81988 21.1488 5.98436 20.9277 5.94908 20.6901C5.93777 20.6131 5.93165 20.5338 5.93165 20.4538C5.93208 20.0734 6.06698 19.7043 6.31119 19.4144C6.46573 19.2308 6.44269 18.9562 6.259 18.8013Z" fill="white"/>
<path d="M8.0983 22.0666H7.54467C7.23042 22.0666 6.92619 21.9761 6.66515 21.8059C6.46318 21.6741 6.19381 21.7315 6.06282 21.933C5.9314 22.1345 5.98844 22.4043 6.1899 22.5353C6.5929 22.7977 7.06118 22.9366 7.54425 22.9371H8.0983C8.33894 22.9371 8.53351 22.7421 8.53351 22.5018C8.53351 22.2616 8.33894 22.0666 8.0983 22.0666Z" fill="white"/>
<path d="M13.4329 22.8944C13.272 22.7147 12.9977 22.6999 12.8185 22.8596C12.6392 23.0197 12.6239 23.2948 12.7836 23.4741C13.0474 23.7696 13.1927 24.1509 13.1927 24.5478L13.1919 24.7758C13.1832 25.016 13.3711 25.2176 13.6115 25.2263C13.6166 25.2263 13.6215 25.2263 13.6271 25.2263C13.8603 25.2263 14.0531 25.0413 14.0615 24.8063L14.0632 24.5478C14.0632 23.9368 13.839 23.3496 13.4329 22.8944Z" fill="white"/>
<path d="M2.54558 26.3404C1.83657 26.3887 1.18077 26.7408 0.746402 27.3061C0.599772 27.4968 0.635898 27.77 0.826475 27.9162C0.905698 27.9772 0.998861 28.0063 1.09109 28.0063C1.22165 28.0063 1.35094 27.948 1.43663 27.8362C1.71867 27.4689 2.1447 27.24 2.60516 27.2086C2.84453 27.1925 3.02559 26.9849 3.00944 26.7451C2.99337 26.5058 2.79234 26.3287 2.54558 26.3404Z" fill="white"/>
<path d="M1.8409 30.2581C1.45227 30.0057 1.19029 29.5996 1.12194 29.144C1.08667 28.9068 0.86651 28.7427 0.627142 28.7776C0.389473 28.8133 0.225417 29.0343 0.260694 29.2724C0.365587 29.9752 0.769012 30.6006 1.36743 30.9884C1.44054 31.0358 1.52239 31.0584 1.60374 31.0584C1.74646 31.0584 1.88578 30.9884 1.96934 30.86C2.10033 30.6586 2.04244 30.3887 1.8409 30.2581Z" fill="white"/>
<path d="M5.01269 30.5156H3.27701C3.03637 30.5156 2.8418 30.7106 2.8418 30.9508C2.8418 31.1911 3.03637 31.3861 3.27701 31.3861H5.01269C5.25333 31.3861 5.4479 31.1911 5.4479 30.9508C5.4479 30.7106 5.25333 30.5156 5.01269 30.5156Z" fill="white"/>
<path d="M13.2173 26.0255C13.0641 25.8401 12.7907 25.8131 12.6045 25.9659C12.3173 26.2027 11.953 26.3328 11.58 26.3328H11.2549C11.0143 26.3328 10.8197 26.5278 10.8197 26.768C10.8197 27.0082 11.0143 27.2032 11.2549 27.2032H11.58C12.1545 27.2032 12.7147 27.0026 13.1581 26.6379C13.3431 26.4856 13.37 26.2113 13.2173 26.0255Z" fill="white"/>
<path d="M15.4272 30.5156H13.6911C13.4504 30.5156 13.2559 30.7106 13.2559 30.9508C13.2559 31.1911 13.4509 31.3861 13.6911 31.3861H15.4272C15.6678 31.3861 15.8624 31.1911 15.8624 30.9508C15.8624 30.7106 15.6679 30.5156 15.4272 30.5156Z" fill="white"/>
<path d="M18.912 31.7412C18.5482 31.1275 17.9397 30.6993 17.2416 30.5661C17.0057 30.5221 16.7772 30.6757 16.7324 30.9121C16.6872 31.1479 16.8425 31.376 17.0784 31.4212C17.5315 31.5074 17.9266 31.786 18.163 32.185C18.2443 32.3222 18.3892 32.3983 18.5376 32.3983C18.613 32.3983 18.6895 32.3788 18.7592 32.3374C18.9664 32.2146 19.0342 31.9479 18.912 31.7412Z" fill="white"/>
<path d="M16.5696 18.1342C16.4877 17.9088 16.237 17.7912 16.012 17.8744C15.8353 17.9384 15.6491 17.9714 15.4588 17.9714H14.4391C14.1985 17.9714 14.0039 18.1664 14.0039 18.4067C14.0039 18.6469 14.1985 18.8419 14.4391 18.8419H15.4588C15.7509 18.8419 16.0368 18.7914 16.3092 18.6922C16.5351 18.6099 16.6518 18.3601 16.5696 18.1342Z" fill="white"/>
<path d="M6.04751 26.3321H4.3115C4.07085 26.3321 3.87628 26.5271 3.87628 26.7673C3.87628 27.0075 4.07085 27.2025 4.3115 27.2025H6.0476C6.28824 27.2025 6.48281 27.0075 6.48281 26.7673C6.48281 26.5271 6.28824 26.3321 6.04751 26.3321Z" fill="white"/>
<path d="M11.5717 22.0625H9.83561C9.59496 22.0625 9.40039 22.2575 9.40039 22.4977C9.40039 22.7379 9.59496 22.9329 9.83561 22.9329H11.5717C11.8123 22.9329 12.0069 22.7379 12.0069 22.4977C12.0069 22.2575 11.8124 22.0625 11.5717 22.0625Z" fill="white"/>
<path d="M18.8221 33.2529C18.5815 33.2529 18.3869 33.4479 18.3869 33.6881V34.5586C18.3869 34.7988 18.5815 34.9938 18.8221 34.9938C19.0628 34.9938 19.2574 34.7988 19.2574 34.5586V33.6881C19.2574 33.4479 19.0628 33.2529 18.8221 33.2529Z" fill="white"/>
</svg>
