<svg width="35" height="35" viewBox="0 0 35 35" fill="none" xmlns="http://www.w3.org/2000/svg">
<path d="M34.8907 16.2271L25.0314 0.207941C24.9518 0.0795243 24.8121 0.000853265 24.6609 0C24.6605 0 24.6596 0 24.6592 0C24.5089 0 24.3691 0.0773058 24.2891 0.204869L17.5307 10.9795L10.9012 0.207941C10.8217 0.0795243 10.6819 0.000853265 10.5307 0C10.5303 0 10.5294 0 10.529 0C10.3788 0 10.2389 0.0773058 10.159 0.204869L0.11176 16.2236C-0.0166562 16.4281 0.0453762 16.6976 0.249392 16.8256C0.321493 16.871 0.40187 16.8924 0.480968 16.8924C0.62645 16.8924 0.768433 16.8199 0.851456 16.6876L5.46617 9.33063L6.75716 11.1821C6.92099 11.4167 7.31025 11.4167 7.47407 11.1821L8.77462 9.31757L10.0739 11.1821C10.2369 11.4167 10.6278 11.4167 10.7908 11.1821L12.0883 9.318L13.3871 11.1821C13.4688 11.2992 13.6025 11.3691 13.7453 11.3691C13.8882 11.3691 14.0223 11.2992 14.1035 11.1817L15.4447 9.25511L17.0135 11.8042L14.242 16.2228C14.1136 16.4272 14.1756 16.6968 14.3796 16.8248C14.5845 16.9528 14.8541 16.8916 14.9816 16.6867L19.5963 9.32977L20.8873 11.1813C21.0511 11.4158 21.4413 11.4158 21.6042 11.1813L22.9044 9.31672L24.2036 11.1813C24.3666 11.4158 24.7576 11.4158 24.9205 11.1813L26.2184 9.31714L27.5168 11.1813C27.5985 11.2988 27.7322 11.3686 27.875 11.3686C28.0179 11.3686 28.152 11.2988 28.2332 11.1813L29.5749 9.25469L34.1472 16.6837C34.2294 16.8187 34.3727 16.8925 34.5194 16.8925C34.5976 16.8925 34.6763 16.8715 34.7479 16.8278C34.9531 16.7011 35.017 16.4325 34.8907 16.2271ZM13.7448 10.1682L12.446 8.30406C12.283 8.06993 11.892 8.0695 11.7291 8.30406L10.4316 10.1682L9.13231 8.30406C9.05065 8.18699 8.91695 8.11711 8.77411 8.11711C8.63127 8.11711 8.49757 8.18699 8.41591 8.30406L7.11536 10.169L5.97019 8.52685L10.5259 1.26471L14.9448 8.44425L13.7448 10.1682ZM27.8745 10.1682L26.5761 8.30406C26.4132 8.0695 26.0222 8.0695 25.8592 8.30406L24.5613 10.1682L23.262 8.30364C23.1804 8.18657 23.0467 8.11669 22.9038 8.11669C22.761 8.11669 22.6269 8.18657 22.5456 8.30364L21.2455 10.1686L20.1005 8.52642L24.6558 1.26428L29.0747 8.44383L27.8745 10.1682Z" fill="white"/>
<path d="M33.2889 23.3848C33.3741 23.4734 33.4886 23.5181 33.603 23.5181C33.7122 23.5181 33.8219 23.4774 33.9062 23.3953C34.0796 23.2275 34.0844 22.951 33.9167 22.7775L31.029 19.7884V17.9711L33.2898 20.3106C33.3749 20.3992 33.4894 20.4438 33.6039 20.4438C33.7131 20.4438 33.8227 20.4032 33.907 20.321C34.0805 20.1533 34.0853 19.8768 33.9175 19.7033L30.9066 16.5871C30.9057 16.5862 30.9049 16.5862 30.9039 16.5853C30.8249 16.5045 30.7148 16.4538 30.5924 16.4538C30.4701 16.4538 30.36 16.5045 30.2809 16.5853C30.28 16.5861 30.2792 16.5861 30.2782 16.5871L27.2673 19.7033C27.0996 19.8768 27.1043 20.1533 27.2778 20.321C27.4509 20.4888 27.7283 20.4844 27.8952 20.3106L30.1551 17.9716V19.789L27.2674 22.778C27.0997 22.9515 27.1044 23.228 27.2779 23.3958C27.4509 23.5635 27.7283 23.5592 27.8952 23.3853L30.1552 21.0463V22.8637L27.2675 25.8532C27.0997 26.0267 27.1045 26.3032 27.278 26.471C27.451 26.6387 27.7284 26.6339 27.8953 26.4605L30.1553 24.1215V29.8187C30.1553 30.0599 30.3506 30.2556 30.5922 30.2556C30.8337 30.2556 31.029 30.0599 31.029 29.8187V24.1211L33.289 26.46C33.3742 26.5487 33.4887 26.5933 33.6031 26.5933C33.7123 26.5933 33.822 26.5527 33.9063 26.4705C34.0797 26.3028 34.0845 26.0262 33.9168 25.8528L31.029 22.8633V21.0459L33.2889 23.3848Z" fill="white"/>
<path d="M7.94997 30.4167L4.91329 27.2734V25.304L7.32223 27.7972C7.40738 27.8859 7.52189 27.9305 7.63631 27.9305C7.74553 27.9305 7.85518 27.8899 7.93948 27.8077C8.11295 27.64 8.11773 27.3634 7.94997 27.1899L4.91329 24.0466V22.0772L7.32223 24.5704C7.40738 24.6591 7.52189 24.7037 7.63631 24.7037C7.74553 24.7037 7.85518 24.6631 7.93948 24.5809C8.11295 24.4132 8.11773 24.1366 7.94997 23.9632L4.7905 20.6928C4.78965 20.6919 4.7888 20.6919 4.78786 20.6911C4.70876 20.6103 4.59869 20.5596 4.47633 20.5596C4.35397 20.5596 4.24433 20.6103 4.1648 20.6911C4.16395 20.6919 4.1631 20.6919 4.16216 20.6928L1.00269 23.9632C0.834936 24.1366 0.839714 24.4132 1.01318 24.5809C1.18622 24.7487 1.46362 24.7439 1.63052 24.5704L4.03946 22.0772V24.0466L1.00277 27.1899C0.835021 27.3633 0.839799 27.6399 1.01327 27.8076C1.18631 27.9754 1.46371 27.9706 1.63061 27.7971L4.03954 25.3039V27.2733L1.00286 30.4166C0.835106 30.59 0.839885 30.8666 1.01293 31.0343C1.1864 31.2021 1.46379 31.1977 1.63069 31.0238L4.03963 28.5306V34.5629C4.03963 34.804 4.23494 34.9998 4.4765 34.9998C4.71806 34.9998 4.91337 34.804 4.91337 34.5629V28.5306L7.32231 31.0238C7.40747 31.1125 7.52198 31.1571 7.6364 31.1571C7.74562 31.1571 7.85526 31.1165 7.93999 31.0343C8.11295 30.8666 8.11773 30.5901 7.94997 30.4167Z" fill="white"/>
<path d="M19.9929 16.6016C19.7514 16.6016 19.5561 16.7973 19.5561 17.0384V17.1402C19.5561 17.342 19.5163 17.5391 19.4386 17.7248C19.345 17.9472 19.4495 18.2031 19.6723 18.2967C19.7277 18.3194 19.7846 18.3307 19.8413 18.3307C20.0121 18.3307 20.1742 18.2298 20.2441 18.0624C20.3673 17.7693 20.4298 17.4587 20.4298 17.1402V17.0384C20.4298 16.7973 20.2346 16.6016 19.9929 16.6016Z" fill="white"/>
<path d="M14.7696 22.4334C14.355 22.249 14.0471 21.8947 13.9234 21.4618C13.8575 21.2294 13.6141 21.0956 13.3839 21.1612C13.1519 21.2271 13.0169 21.4687 13.0833 21.7007C13.2773 22.3831 13.7627 22.9414 14.4141 23.2315C14.4722 23.2572 14.5325 23.2694 14.5915 23.2694C14.7588 23.2694 14.9187 23.1729 14.9908 23.01C15.0889 22.7899 14.9898 22.5313 14.7696 22.4334Z" fill="white"/>
<path d="M15.9018 30.632H14.1897C13.9482 30.632 13.7529 30.8273 13.7529 31.0688C13.7529 31.31 13.9482 31.5057 14.1897 31.5057H15.9018C16.1434 31.5057 16.3387 31.31 16.3387 31.0688C16.3387 30.8277 16.1434 30.632 15.9018 30.632Z" fill="white"/>
<path d="M15.1536 18.6691C14.4472 18.7382 13.8111 19.1139 13.4084 19.6997C13.2721 19.8985 13.3223 20.1706 13.5211 20.3074C13.5967 20.3594 13.6827 20.3843 13.7679 20.3843C13.9068 20.3843 14.0436 20.3183 14.1283 20.1947C14.3847 19.8217 14.7894 19.5827 15.2389 19.539C15.4791 19.5154 15.6543 19.3018 15.6308 19.0619C15.607 18.8221 15.3978 18.6465 15.1536 18.6691Z" fill="white"/>
<path d="M12.4857 30.6303C12.0335 30.6233 11.6102 30.418 11.3245 30.0681C11.172 29.8811 10.8968 29.8527 10.7102 30.0056C10.5227 30.1581 10.4953 30.4332 10.6477 30.6203C11.096 31.1703 11.7609 31.4923 12.4708 31.5041C12.4735 31.5041 12.476 31.5041 12.4783 31.5041C12.7163 31.5041 12.9112 31.3132 12.9151 31.0746C12.919 30.8333 12.7268 30.6346 12.4857 30.6303Z" fill="white"/>
<path d="M21.3978 23.8666C21.0728 23.2344 20.4887 22.7818 19.7958 22.6246C19.5568 22.5704 19.3257 22.7185 19.2724 22.9539C19.2191 23.1894 19.3668 23.4232 19.6018 23.4765C20.0426 23.5765 20.4135 23.8645 20.6201 24.2659C20.6979 24.4166 20.8504 24.5031 21.0094 24.5031C21.0762 24.5031 21.1448 24.4874 21.2086 24.4547C21.4231 24.3445 21.5079 24.0811 21.3978 23.8666Z" fill="white"/>
<path d="M14.8647 26.6359H13.1527C12.9111 26.6359 12.7158 26.8317 12.7158 27.0728C12.7158 27.3139 12.9111 27.5097 13.1527 27.5097H14.8647C15.1063 27.5097 15.3016 27.3139 15.3016 27.0728C15.3016 26.8316 15.1063 26.6359 14.8647 26.6359Z" fill="white"/>
<path d="M11.8652 27.1323C11.7399 26.926 11.4716 26.8605 11.2649 26.9851C10.6542 27.3551 10.2431 27.9698 10.1373 28.671C10.1015 28.9096 10.2657 29.1323 10.5043 29.1682C10.5266 29.1717 10.5489 29.173 10.5699 29.173C10.7821 29.173 10.9688 29.0178 11.0015 28.8012C11.0679 28.3573 11.3292 27.9676 11.718 27.7326C11.9242 27.6075 11.9902 27.3388 11.8652 27.1323Z" fill="white"/>
<path d="M17.9899 22.5654H16.2778C16.0363 22.5654 15.8409 22.7607 15.8409 23.0023C15.8409 23.2434 16.0363 23.4392 16.2778 23.4392H17.9899C18.2315 23.4392 18.4268 23.2434 18.4268 23.0023C18.4268 22.7612 18.2315 22.5654 17.9899 22.5654Z" fill="white"/>
<path d="M19.3266 30.632H17.6141C17.3725 30.632 17.1772 30.8273 17.1772 31.0688C17.1772 31.31 17.3725 31.5057 17.6141 31.5057H19.3266C19.5682 31.5057 19.7635 31.31 19.7635 31.0688C19.7635 30.8277 19.5682 30.632 19.3266 30.632Z" fill="white"/>
<path d="M22.751 30.632H21.0389C20.7973 30.632 20.602 30.8273 20.602 31.0688C20.602 31.31 20.7973 31.5057 21.0389 31.5057H22.751C22.9925 31.5057 23.1878 31.31 23.1878 31.0688C23.1879 30.8277 22.9926 30.632 22.751 30.632Z" fill="white"/>
<path d="M18.2882 26.6359H16.576C16.3345 26.6359 16.1391 26.8317 16.1391 27.0728C16.1391 27.3139 16.3345 27.5097 16.576 27.5097H18.2881C18.5292 27.5097 18.725 27.3139 18.725 27.0728C18.7251 26.8316 18.5297 26.6359 18.2882 26.6359Z" fill="white"/>
<path d="M21.2612 25.3202C21.0327 25.2437 20.785 25.3678 20.7085 25.5967C20.5665 26.0244 20.2437 26.3648 19.8222 26.5308C19.5972 26.619 19.4871 26.8729 19.5757 27.0975C19.6435 27.2696 19.8082 27.3744 19.9825 27.3744C20.0358 27.3744 20.09 27.3648 20.1424 27.3439C20.806 27.0826 21.3145 26.5466 21.5381 25.8725C21.6142 25.6435 21.4905 25.3962 21.2612 25.3202Z" fill="white"/>
<path d="M26.2418 31.6992C25.8469 31.1081 25.2164 30.7232 24.5114 30.6437C24.2685 30.6153 24.0549 30.7891 24.0282 31.029C24.0011 31.2689 24.1737 31.4851 24.4135 31.5118C24.8622 31.5625 25.2637 31.8071 25.5149 32.1842C25.5988 32.3104 25.7377 32.3785 25.8788 32.3785C25.9619 32.3785 26.0462 32.355 26.1208 32.3052C26.3213 32.1714 26.376 31.9001 26.2418 31.6992Z" fill="white"/>
<path d="M19.0281 18.8785C18.9578 18.6474 18.7144 18.5189 18.4824 18.5898C18.3365 18.6347 18.1841 18.6575 18.0294 18.6575H16.9076C16.666 18.6575 16.4707 18.8533 16.4707 19.0944C16.4707 19.3355 16.666 19.5313 16.9076 19.5313H18.029C18.2715 19.5313 18.5104 19.4954 18.7398 19.4247C18.97 19.3533 19.0994 19.1087 19.0281 18.8785Z" fill="white"/>
<path d="M26.2045 33.1992C25.9629 33.1992 25.7676 33.395 25.7676 33.6361V34.5098C25.7676 34.751 25.9629 34.9467 26.2045 34.9467C26.446 34.9467 26.6413 34.751 26.6413 34.5098V33.6361C26.6413 33.3949 26.446 33.1992 26.2045 33.1992Z" fill="white"/>
</svg>
