<svg width="35" height="35" viewBox="0 0 35 35" fill="none" xmlns="http://www.w3.org/2000/svg">
<path d="M12.4849 9.92604L7.68375 0.243274C7.61026 0.0949341 7.45927 0.000427246 7.2935 0C7.29308 0 7.29222 0 7.29171 0C7.12722 0.000427246 6.9758 0.0932251 6.90146 0.240625L0.0471537 13.8031C-0.061794 14.0188 0.0244242 14.2822 0.240098 14.3911C0.303501 14.4231 0.370921 14.4379 0.436973 14.4379C0.596678 14.4379 0.751084 14.3504 0.828074 14.1977L4.7971 6.34375L5.63229 8.21885C5.70227 8.37633 5.85932 8.47827 6.03176 8.47827C6.20505 8.47827 6.36117 8.37676 6.43166 8.21842L7.22745 6.42988L8.02409 8.21885C8.09408 8.37633 8.25113 8.47827 8.42357 8.47827C8.59686 8.47827 8.75298 8.37676 8.82347 8.21842L9.69275 6.26497L11.7013 10.3149C11.808 10.531 12.0714 10.6203 12.2876 10.5122C12.5041 10.4051 12.5925 10.1426 12.4849 9.92604ZM8.424 6.96454L7.62727 5.17566C7.55728 5.01818 7.40023 4.91623 7.22779 4.91623C7.0545 4.91623 6.89839 5.01775 6.82789 5.17609L6.03219 6.96497L5.30638 5.33613L7.28821 1.41444L9.18868 5.24735L8.424 6.96454Z" fill="white"/>
<path d="M32.2822 28.2776V26.7687L34.23 28.7952C34.3971 28.9689 34.6741 28.9746 34.8486 28.807C35.0223 28.6394 35.028 28.3625 34.8604 28.1884L32.2818 25.5064V23.9975L34.2318 26.0232C34.3989 26.1969 34.6758 26.2029 34.8504 26.0349C35.0241 25.8674 35.0298 25.5904 34.8622 25.4163L32.1615 22.6071C32.1607 22.6062 32.1593 22.6058 32.158 22.6048C32.1182 22.5642 32.0709 22.5309 32.018 22.5081L32.0176 22.5077C31.9651 22.4854 31.907 22.4727 31.8461 22.4727C31.7853 22.4727 31.7275 22.4853 31.675 22.5077C31.6707 22.5095 31.6676 22.5138 31.6633 22.5156C31.6151 22.5379 31.571 22.5672 31.5342 22.6043C31.5334 22.6052 31.532 22.6056 31.5307 22.6066L28.83 25.4166C28.6625 25.5908 28.6682 25.8677 28.8418 26.0353C28.9267 26.1171 29.036 26.1573 29.145 26.1573C29.2601 26.1573 29.3742 26.1123 29.4605 26.023L31.4086 23.9965V25.5058L28.8296 28.1878C28.662 28.3619 28.6678 28.6388 28.8414 28.8064C28.9262 28.8882 29.0356 28.9284 29.1446 28.9284C29.2597 28.9284 29.3738 28.8834 29.46 28.7941L31.4082 26.7676V28.277L28.8292 30.9589C28.6616 31.133 28.6673 31.41 28.841 31.5775C28.9258 31.6593 29.0348 31.6995 29.1441 31.6995C29.2592 31.6995 29.3734 31.6545 29.4596 31.5652L31.4078 29.5391V34.563C31.4078 34.8049 31.6034 35.0005 31.8453 35.0005C32.0872 35.0005 32.2828 34.8049 32.2828 34.563V29.5396L34.2305 31.5656C34.3976 31.7394 34.6746 31.745 34.8491 31.5774C35.0229 31.4099 35.0285 31.1329 34.8609 30.9588L32.2822 28.2776Z" fill="white"/>
<path d="M24.9309 19.9567V18.4478L26.8786 20.4743C27.0462 20.6484 27.3227 20.6541 27.4972 20.4861C27.671 20.3185 27.6766 20.0416 27.509 19.8674L24.9304 17.1855V15.6762L26.8808 17.7023C27.0484 17.876 27.3249 17.8817 27.4995 17.7141C27.6732 17.5466 27.6788 17.2696 27.5113 17.0955L24.8106 14.2868C24.8097 14.2859 24.8083 14.2855 24.807 14.2845C24.7699 14.2469 24.7257 14.2172 24.6771 14.1948C24.6732 14.1931 24.6701 14.1891 24.6661 14.1874C24.6137 14.1651 24.5559 14.1523 24.4951 14.1523C24.4342 14.1523 24.3765 14.165 24.324 14.1874C24.3196 14.1891 24.3166 14.1935 24.3122 14.1952C24.2641 14.2175 24.2199 14.2469 24.1832 14.284C24.1823 14.2849 24.181 14.2853 24.1797 14.2862L21.4785 17.095C21.311 17.2691 21.3167 17.546 21.4903 17.7136C21.5752 17.7954 21.6841 17.8357 21.7935 17.8357C21.9086 17.8357 22.0228 17.7907 22.1089 17.7014L24.0571 15.6753V17.1842L21.478 19.8662C21.3105 20.0403 21.3162 20.3172 21.4898 20.4848C21.5747 20.5666 21.6841 20.6068 21.793 20.6068C21.9081 20.6068 22.0223 20.5618 22.1085 20.4725L24.0566 18.446V19.9554L21.4776 22.6373C21.31 22.8114 21.3158 23.0884 21.4894 23.2559C21.5742 23.3377 21.6836 23.3779 21.7926 23.3779C21.9077 23.3779 22.0218 23.3329 22.1081 23.2436L24.0562 21.2171V26.2405C24.0562 26.4824 24.2518 26.678 24.4937 26.678C24.7356 26.678 24.9312 26.4824 24.9312 26.2405V21.2189L26.8789 23.2454C27.0465 23.4191 27.323 23.4248 27.4976 23.2572C27.6713 23.0896 27.6769 22.8127 27.5094 22.6386L24.9309 19.9567Z" fill="white"/>
<path d="M33.7266 0H32.4141C32.1722 0 31.9766 0.195593 31.9766 0.4375C31.9766 0.679407 32.1722 0.875 32.4141 0.875H33.7266C33.9685 0.875 34.1641 0.679407 34.1641 0.4375C34.1641 0.195593 33.9685 0 33.7266 0Z" fill="white"/>
<path d="M28.9614 8.0601C28.8844 7.83126 28.6363 7.70659 28.4071 7.78538C28.1782 7.86237 28.0549 8.11043 28.1324 8.33969C28.2159 8.58817 28.2584 8.84759 28.2579 9.11146V9.2598C28.2583 9.68987 28.1432 10.1125 27.9258 10.4813C27.8033 10.6895 27.8724 10.9578 28.0807 11.0802C28.1502 11.1213 28.2268 11.141 28.3025 11.141C28.4525 11.141 28.5982 11.0641 28.6796 10.9258C28.9767 10.4227 29.1332 9.84607 29.1332 9.25937V9.11146C29.1337 8.75309 29.076 8.39873 28.9614 8.0601Z" fill="white"/>
<path d="M27.8051 6.47133C27.2355 6.04827 26.5582 5.82422 25.8473 5.82422H25.0742C24.8323 5.82422 24.6367 6.01981 24.6367 6.26172C24.6367 6.50363 24.8323 6.69922 25.0742 6.69922H25.8473C26.3688 6.69922 26.8653 6.86328 27.2827 7.17346C27.3615 7.23165 27.453 7.25968 27.5435 7.25968C27.6774 7.25968 27.8091 7.19841 27.8953 7.0834C28.0391 6.8896 27.9989 6.61531 27.8051 6.47133Z" fill="white"/>
<path d="M22.7628 11.668H20.1719C19.93 11.668 19.7344 11.8636 19.7344 12.1055C19.7344 12.3474 19.93 12.543 20.1719 12.543H22.7628C23.0047 12.543 23.2003 12.3474 23.2003 12.1055C23.2003 11.8636 23.0048 11.668 22.7628 11.668Z" fill="white"/>
<path d="M23.3493 5.82572H21.6255C21.6242 5.82572 21.6229 5.82572 21.6216 5.82572C21.3766 5.82572 21.1351 5.78898 20.9028 5.71592C20.6709 5.64244 20.4259 5.77189 20.3541 6.00201C20.2819 6.23255 20.4101 6.47847 20.6403 6.55059C20.9579 6.65031 21.2878 6.70064 21.6212 6.70064C21.6229 6.70064 21.6242 6.70064 21.6259 6.70064H23.3493C23.5912 6.70064 23.7868 6.50505 23.7868 6.26314C23.7868 6.02123 23.5913 5.82572 23.3493 5.82572Z" fill="white"/>
<path d="M19.7198 4.891C19.3894 4.46529 19.2148 3.95516 19.2148 3.41486V3.28233C19.2144 3.1187 19.231 2.95463 19.2638 2.79536C19.3123 2.55866 19.1606 2.32727 18.9239 2.27822C18.6872 2.23097 18.4558 2.38101 18.4068 2.61814C18.3617 2.83646 18.3393 3.06042 18.3399 3.2831V3.41478C18.3399 4.15152 18.5783 4.84716 19.0293 5.42771C19.115 5.53879 19.2442 5.59698 19.375 5.59698C19.4686 5.59698 19.5636 5.56724 19.6427 5.5047C19.834 5.35653 19.8685 5.08172 19.7198 4.891Z" fill="white"/>
<path d="M26.5384 31.2978C26.2024 30.3493 25.4324 29.5932 24.4782 29.276C24.2494 29.2007 24.0013 29.3237 23.9248 29.5534C23.8486 29.7822 23.9725 30.0303 24.2022 30.1068C24.9022 30.3396 25.4674 30.8944 25.7137 31.5904C25.7777 31.7698 25.9457 31.8818 26.1259 31.8818C26.1748 31.8814 26.2243 31.8731 26.2724 31.856C26.5004 31.775 26.6194 31.5252 26.5384 31.2978Z" fill="white"/>
<path d="M19.3277 19.5677C19.2489 19.3399 18.9995 19.2177 18.7711 19.2982C18.5432 19.3775 18.422 19.6264 18.5016 19.8548C18.5891 20.1076 18.6337 20.3728 18.6333 20.6431V20.8802C18.6333 21.2779 18.534 21.6725 18.3472 22.0204C18.2326 22.233 18.3127 22.4986 18.5253 22.6127C18.5909 22.6482 18.6618 22.6648 18.7323 22.6648C18.8876 22.6652 19.0381 22.5821 19.1173 22.4351C19.3728 21.96 19.508 21.4227 19.508 20.8802V20.6436C19.5084 20.2756 19.4475 19.9137 19.3277 19.5677Z" fill="white"/>
<path d="M18.3116 29.1094H15.7207C15.4788 29.1094 15.2832 29.305 15.2832 29.5469C15.2832 29.7888 15.4788 29.9844 15.7207 29.9844H18.3116C18.5535 29.9844 18.7491 29.7888 18.7491 29.5469C18.7491 29.305 18.5535 29.1094 18.3116 29.1094Z" fill="white"/>
<path d="M30.6866 0H28.0957C27.8538 0 27.6582 0.195593 27.6582 0.4375C27.6582 0.679407 27.8538 0.875 28.0957 0.875H30.6866C30.9285 0.875 31.1241 0.679407 31.1241 0.4375C31.1241 0.195593 30.9285 0 30.6866 0Z" fill="white"/>
<path d="M13.2471 23.2891H10.6562C10.4143 23.2891 10.2188 23.4847 10.2188 23.7266C10.2188 23.9685 10.4143 24.1641 10.6562 24.1641H13.2471C13.4891 24.1641 13.6846 23.9685 13.6846 23.7266C13.6846 23.4847 13.4891 23.2891 13.2471 23.2891Z" fill="white"/>
<path d="M13.7003 17.3594H11.1094C10.8675 17.3594 10.6719 17.555 10.6719 17.7969C10.6719 18.0388 10.8675 18.2344 11.1094 18.2344H13.7003C13.9422 18.2344 14.1378 18.0388 14.1378 17.7969C14.1378 17.5549 13.9423 17.3594 13.7003 17.3594Z" fill="white"/>
<path d="M8.93067 23.2891H6.33984C6.09794 23.2891 5.90234 23.4847 5.90234 23.7266C5.90234 23.9685 6.09794 24.1641 6.33984 24.1641H8.93076C9.17266 24.1641 9.36826 23.9685 9.36826 23.7266C9.36826 23.4847 9.17266 23.2891 8.93067 23.2891Z" fill="white"/>
<path d="M9.67489 29.1094H7.08398C6.84208 29.1094 6.64648 29.305 6.64648 29.5469C6.64648 29.7888 6.84208 29.9844 7.08398 29.9844H9.67489C9.9168 29.9844 10.1124 29.7888 10.1124 29.5469C10.1124 29.305 9.9168 29.1094 9.67489 29.1094Z" fill="white"/>
<path d="M13.9932 29.1094H11.4023C11.1604 29.1094 10.9648 29.305 10.9648 29.5469C10.9648 29.7888 11.1604 29.9844 11.4023 29.9844H13.9932C14.2352 29.9844 14.4307 29.7888 14.4307 29.5469C14.4307 29.305 14.2352 29.1094 13.9932 29.1094Z" fill="white"/>
<path d="M10.2392 12.093C10.1719 11.8616 9.93167 11.7269 9.69711 11.7951C8.73197 12.0755 7.93396 12.8013 7.56209 13.7367C7.4733 13.9616 7.58268 14.2158 7.80749 14.305C7.86047 14.3261 7.91516 14.3356 7.96891 14.3356C8.14263 14.3356 8.30712 14.2315 8.37582 14.0596C8.6484 13.3731 9.23372 12.8407 9.94158 12.6346C10.1736 12.5681 10.3066 12.3253 10.2392 12.093Z" fill="white"/>
<path d="M22.63 29.1094H20.0391C19.7972 29.1094 19.6016 29.305 19.6016 29.5469C19.6016 29.7888 19.7976 29.9844 20.0391 29.9844H22.63C22.8719 29.9844 23.0675 29.7888 23.0675 29.5469C23.0675 29.305 22.8719 29.1094 22.63 29.1094Z" fill="white"/>
<path d="M1.8712 27.9895C1.62708 27.605 1.49805 27.16 1.49805 26.702V26.5777C1.49805 26.3327 1.53436 26.0917 1.60657 25.8606C1.67834 25.6301 1.54923 25.3846 1.31912 25.3125C1.08678 25.2416 0.842651 25.3698 0.770959 25.5999C0.672949 25.9154 0.623047 26.2444 0.623047 26.5773V26.7015C0.623047 27.3258 0.798901 27.9331 1.1319 28.4585C1.21504 28.5898 1.35723 28.6616 1.50206 28.6616C1.58256 28.6616 1.66305 28.6397 1.73611 28.5937C1.9399 28.4642 2.00032 28.1939 1.8712 27.9895Z" fill="white"/>
<path d="M4.6115 23.2891H3.90671C3.16818 23.2891 2.46954 23.5293 1.88721 23.9833C1.69649 24.1317 1.66273 24.4068 1.8115 24.5971C1.89729 24.7078 2.02632 24.7655 2.15671 24.7655C2.25037 24.7655 2.3453 24.7354 2.42537 24.6728C2.85236 24.3399 3.36428 24.164 3.90671 24.164H4.6115C4.8534 24.164 5.049 23.9684 5.049 23.7265C5.049 23.4846 4.8534 23.2891 4.6115 23.2891Z" fill="white"/>
<path d="M5.35728 29.1112H3.90653C3.58062 29.1112 3.26472 29.0473 2.96761 28.9213C2.74715 28.8276 2.48858 28.9305 2.39408 29.1536C2.3 29.3759 2.40373 29.6327 2.62641 29.7272C3.03195 29.8991 3.46245 29.9862 3.90653 29.9862H5.35728C5.59919 29.9862 5.79478 29.7906 5.79478 29.5487C5.79478 29.3068 5.59919 29.1112 5.35728 29.1112Z" fill="white"/>
<path d="M26.3682 0H23.7773C23.5354 0 23.3398 0.195593 23.3398 0.4375C23.3398 0.679407 23.5354 0.875 23.7773 0.875H26.3682C26.6102 0.875 26.8057 0.679407 26.8057 0.4375C26.8057 0.195593 26.6102 0 26.3682 0Z" fill="white"/>
<path d="M27.4398 11.6601C27.3388 11.4409 27.0785 11.3451 26.8593 11.447C26.5421 11.5936 26.2026 11.668 25.8496 11.668H24.4902C24.2483 11.668 24.0527 11.8636 24.0527 12.1055C24.0527 12.3474 24.2483 12.543 24.4902 12.543H25.85V12.5426C26.3312 12.5426 26.7941 12.4411 27.2268 12.2407C27.446 12.1396 27.5418 11.8792 27.4398 11.6601Z" fill="white"/>
<path d="M22.0497 0H21.624C20.7775 0 19.9737 0.321118 19.3604 0.904309C19.1854 1.07102 19.1788 1.34796 19.3451 1.52296C19.4309 1.61311 19.5467 1.659 19.6623 1.659C19.7708 1.659 19.8793 1.61875 19.9637 1.53868C20.413 1.11041 21.0028 0.875 21.624 0.875H22.0497C22.2916 0.875 22.4872 0.679407 22.4872 0.4375C22.4872 0.195593 22.2917 0 22.0497 0Z" fill="white"/>
<path d="M18.4444 11.668H15.8535C15.6116 11.668 15.416 11.8636 15.416 12.1055C15.416 12.3474 15.6116 12.543 15.8535 12.543H18.4444C18.6863 12.543 18.8819 12.3474 18.8819 12.1055C18.8819 11.8636 18.6863 11.668 18.4444 11.668Z" fill="white"/>
<path d="M17.9054 23.2227C17.7956 23.0079 17.5319 22.9227 17.3165 23.032C16.977 23.2053 16.6104 23.2937 16.2254 23.2937C16.225 23.2937 16.2241 23.2937 16.2232 23.2937H14.9746C14.7327 23.2937 14.5371 23.4893 14.5371 23.7312C14.5371 23.9731 14.7327 24.1687 14.9746 24.1687H16.2228C16.2236 24.1687 16.225 24.1687 16.2258 24.1687C16.7426 24.1687 17.2571 24.0453 17.7146 23.8117C17.9299 23.7013 18.0152 23.438 17.9054 23.2227Z" fill="white"/>
<path d="M18.161 17.9954C17.5966 17.582 16.9268 17.3633 16.2238 17.3633H15.4297C15.1882 17.3629 14.9922 17.5584 14.9922 17.8004C14.9922 18.0423 15.1878 18.2379 15.4297 18.2379H16.2238C16.7395 18.2379 17.2304 18.398 17.6439 18.7012C17.7218 18.7585 17.8124 18.7856 17.9021 18.7856C18.0368 18.7856 18.1694 18.7235 18.2556 18.6066C18.3981 18.412 18.3557 18.138 18.161 17.9954Z" fill="white"/>
<path d="M14.1261 11.668H11.5352C11.2933 11.668 11.0977 11.8636 11.0977 12.1055C11.0977 12.3474 11.2933 12.543 11.5352 12.543H14.1261C14.368 12.543 14.5636 12.3474 14.5636 12.1055C14.5636 11.8636 14.368 11.668 14.1261 11.668Z" fill="white"/>
<path d="M9.60546 17.1403C8.93477 16.8306 8.43429 16.2172 8.26758 15.4993C8.21332 15.2639 7.97748 15.1152 7.74258 15.1724C7.50768 15.2267 7.36105 15.462 7.41574 15.6974C7.64235 16.6757 8.32398 17.5122 9.2388 17.9348C9.29827 17.9619 9.36039 17.9751 9.42166 17.9751C9.587 17.9751 9.74543 17.881 9.81934 17.7209C9.92043 17.5017 9.82506 17.2418 9.60546 17.1403Z" fill="white"/>
<path d="M26.2891 32.8047C26.0472 32.8047 25.8516 33.0003 25.8516 33.2422V34.5547C25.8516 34.7966 26.0472 34.9922 26.2891 34.9922C26.531 34.9922 26.7266 34.7966 26.7266 34.5547V33.2422C26.7266 33.0003 26.531 32.8047 26.2891 32.8047Z" fill="white"/>
</svg>
