<svg width="35" height="35" viewBox="0 0 35 35" fill="none" xmlns="http://www.w3.org/2000/svg">
<g clip-path="url(#clip0_217_2785)">
<path d="M33.4124 6.93144C33.2489 6.59423 32.92 6.38352 32.5535 6.38352H32.4136V5.86183C32.4136 5.22381 31.8732 4.70426 31.2084 4.70426H27.968V2.14423L34.629 0.870326C34.8665 0.824887 35.0218 0.595729 34.9767 0.358713C34.9312 0.121271 34.7007 -0.03264 34.465 0.0115175L0.355199 6.53479C0.117756 6.58022 -0.0375209 6.80938 0.00757611 7.0464C0.0478047 7.25583 0.231011 7.40145 0.436596 7.40145C0.463671 7.40145 0.491259 7.3988 0.518847 7.39359L7.03947 6.14642V8.30408H3.79897C3.1343 8.30408 2.59374 8.82363 2.59374 9.46165V9.98334H2.45383C2.08734 9.98334 1.7585 10.1937 1.59494 10.5326C1.11783 11.5253 0.0074907 14.0949 0.0074907 16.5163C0.0074907 18.816 1.01415 20.8893 1.4974 21.8859L1.59494 22.087C1.75722 22.4277 2.08691 22.6394 2.45469 22.6394H12.4987C12.866 22.6394 13.1953 22.4282 13.3589 22.087L13.4573 21.8837C13.94 20.8875 14.9458 18.8138 14.9458 16.5158C14.9458 14.0935 13.8359 11.5243 13.3588 10.5317C13.1952 10.1932 12.8664 9.9824 12.4999 9.9824H12.36V9.46071C12.36 8.82269 11.8195 8.30314 11.1547 8.30314H7.91451V5.97816L27.093 2.31053V4.70349H23.8525C23.1879 4.70349 22.6473 5.22304 22.6473 5.86106V6.38275H22.5074C22.1409 6.38275 21.8121 6.59312 21.6485 6.93203C21.1714 7.92468 20.0611 10.4944 20.0611 12.9157C20.0611 15.3366 21.171 17.9241 21.6485 18.9238C21.8112 19.2644 22.1405 19.4762 22.5087 19.4762H32.5523C32.9205 19.4762 33.2497 19.2645 33.4124 18.9238C33.89 17.9238 34.9999 15.3367 34.9999 12.9157C34.9998 10.4942 33.8895 7.92417 33.4124 6.93144ZM12.5005 10.858C12.5281 10.858 12.5543 10.8781 12.5704 10.9123C12.9225 11.6443 14.0713 14.2113 14.0713 16.5168C14.0713 18.614 13.1249 20.5653 12.6702 21.5029L12.5701 21.7106C12.5539 21.7443 12.5264 21.7653 12.4988 21.7653H2.4552C2.42761 21.7653 2.40096 21.7451 2.38482 21.7106L2.28515 21.5042C1.82991 20.5662 0.882698 18.6149 0.882698 16.5163C0.882698 14.2117 2.03148 11.6438 2.38397 10.9122C2.40011 10.8781 2.42684 10.858 2.45435 10.858H12.5005V10.858ZM11.1549 9.17877C11.3373 9.17877 11.4855 9.30561 11.4855 9.46174V9.98343H3.46886V9.46174C3.46886 9.30561 3.61713 9.17877 3.79949 9.17877H11.1549ZM23.5219 5.86183C23.5219 5.7057 23.6702 5.57887 23.8525 5.57887H31.208C31.3903 5.57887 31.5386 5.7057 31.5386 5.86183V6.38352H23.5219V5.86183ZM32.6231 18.5484C32.6069 18.5825 32.5802 18.6031 32.5523 18.6031H22.5086C22.481 18.6031 22.4539 18.5821 22.4378 18.5484C22.0853 17.8102 20.9357 15.2219 20.9357 12.9169C20.9357 10.6123 22.0845 8.04443 22.4369 7.3128C22.4531 7.27872 22.4798 7.25856 22.5073 7.25856H32.5535C32.5811 7.25856 32.6078 7.27872 32.6239 7.3128C32.9764 8.04485 34.1252 10.6127 34.1252 12.9173C34.1248 15.2219 32.9756 17.8098 32.6231 18.5484Z" fill="white"/>
<path d="M26.166 8.03943H23.9974C23.6795 8.03943 23.3917 8.21478 23.2461 8.49732C22.9089 9.1537 22.2137 11.1019 22.2137 12.9307C22.2137 13.1721 22.4092 13.3681 22.651 13.3681H26.1661C26.4078 13.3681 26.6034 13.1721 26.6034 12.9307V8.47673C26.6033 8.23536 26.4078 8.03943 26.166 8.03943ZM25.7287 12.4934H23.1022C23.1971 10.9859 23.745 9.45059 24.0153 8.91404H25.7287V12.4934Z" fill="white"/>
<path d="M31.8146 8.49689C31.6694 8.21486 31.3816 8.03943 31.0637 8.03943H28.8952C28.6534 8.03943 28.4579 8.23536 28.4579 8.47673V12.9307C28.4579 13.172 28.6534 13.368 28.8952 13.368H32.4107C32.6525 13.368 32.848 13.172 32.848 12.9307C32.848 11.1024 32.1518 9.15455 31.8146 8.49689ZM29.3329 12.4934V8.91404H31.0462C31.3169 9.45196 31.8649 10.9869 31.9598 12.4934H29.3329Z" fill="white"/>
<path d="M6.1117 11.6399H3.94354C3.62479 11.6399 3.33653 11.8157 3.19227 12.0982C2.85507 12.755 2.15939 14.7028 2.15939 16.5316C2.15939 16.773 2.3549 16.9685 2.5967 16.9685H6.11179C6.35359 16.9685 6.5491 16.7726 6.5491 16.5312V12.0773C6.54901 11.8358 6.3535 11.6399 6.1117 11.6399ZM5.6744 16.0942H3.04792C3.14282 14.5873 3.6903 13.0533 3.96191 12.5145H5.6744V16.0942Z" fill="white"/>
<path d="M11.7618 12.0986C11.6171 11.8157 11.3293 11.6399 11.0101 11.6399H8.84197C8.60017 11.6399 8.40466 11.8358 8.40466 12.0772V16.5316C8.40466 16.7729 8.60017 16.9684 8.84197 16.9684H12.3571C12.5989 16.9684 12.7944 16.7725 12.7944 16.5311C12.7943 14.7002 12.0981 12.7537 11.7618 12.0986ZM9.27919 16.0943V12.5145H10.9917C11.2628 13.0515 11.8108 14.5855 11.9057 16.0943H9.27919Z" fill="white"/>
<path d="M34.9545 34.3644L29.2481 22.7444C29.1751 22.5957 29.0238 22.5008 28.8581 22.4999C28.7129 22.5056 28.5397 22.5917 28.4653 22.74L23.8391 31.8937L17.953 20.0244C17.8796 19.8761 17.7287 19.7821 17.563 19.7812C17.5625 19.7812 17.5617 19.7812 17.5612 19.7812C17.3963 19.7812 17.245 19.8739 17.1707 20.0213L10.657 32.9108L6.0522 23.7982C5.97789 23.6513 5.82654 23.5582 5.6617 23.5582C5.66085 23.5582 5.66042 23.5582 5.65948 23.5582C5.49378 23.559 5.34243 23.6535 5.26941 23.8022L0.0606988 34.364C-0.0464066 34.581 0.0427625 34.8428 0.259194 34.9496C0.321715 34.9802 0.387311 34.9946 0.452479 34.9946C0.613821 34.9946 0.769098 34.9049 0.844772 34.7506L2.13567 32.1333L2.96083 33.6045C3.03821 33.7422 3.18427 33.8279 3.34219 33.8279C3.50012 33.8279 3.64608 33.7427 3.72355 33.6049L4.53735 32.1552L5.34986 33.6049C5.42725 33.7427 5.57287 33.8283 5.73122 33.8283C5.88906 33.8283 6.03512 33.7431 6.11259 33.6053L6.92638 32.1548L7.74154 33.6053C7.81935 33.7431 7.96498 33.8283 8.1229 33.8283C8.28074 33.8283 8.42637 33.7431 8.50426 33.6053L9.30585 32.1783L10.166 33.8808L9.9238 34.3605C9.8149 34.5761 9.90108 34.8393 10.1167 34.9482C10.3327 35.058 10.596 34.9705 10.7044 34.7554L13.9155 28.4013L14.7171 29.8287C14.8718 30.1042 15.3254 30.1042 15.4797 29.8287L16.2944 28.3782L17.1082 29.8283C17.263 30.1042 17.7165 30.1042 17.8709 29.8283L18.6838 28.3786L19.4972 29.8283C19.5746 29.966 19.7206 30.0517 19.8785 30.0517C20.0365 30.0517 20.1824 29.9665 20.2599 29.8283L21.0969 28.3366L24.2787 34.7528C24.357 34.9054 24.5118 34.9946 24.6727 34.9946C24.7379 34.9946 24.8044 34.9802 24.8665 34.9492C25.0829 34.8415 25.1713 34.5793 25.0637 34.3632L24.3246 32.8724L25.2106 31.1193L26.0122 32.5466C26.1669 32.8222 26.6205 32.8222 26.7748 32.5466L27.5895 31.0961L28.4033 32.5462C28.5581 32.8222 29.0116 32.8222 29.166 32.5462L29.9789 31.0965L30.7923 32.5462C30.8697 32.684 31.0157 32.7696 31.1736 32.7696C31.3316 32.7696 31.4775 32.6844 31.555 32.5462L32.3719 31.0905L34.1692 34.7498C34.2461 34.9051 34.4014 34.9947 34.5628 34.9947C34.6271 34.9947 34.6931 34.9803 34.7548 34.9497C34.9715 34.8433 35.0608 34.5809 34.9545 34.3644ZM8.12367 32.498L7.30851 31.0475C7.15323 30.7715 6.70021 30.772 6.54588 31.0475L5.73208 32.4972L4.91956 31.0475C4.84218 30.9097 4.69655 30.8241 4.5382 30.8241C4.38036 30.8241 4.23431 30.9093 4.15684 31.0471L3.34305 32.4968L2.60578 31.1818L5.66734 24.9743L8.83259 31.2374L8.12367 32.498ZM19.8802 28.7197L19.0668 27.27C18.912 26.9941 18.4585 26.9941 18.3042 27.27L17.4912 28.7197L16.6774 27.27C16.6 27.1323 16.454 27.0466 16.2961 27.0466C16.1381 27.0466 15.9922 27.1318 15.9147 27.2696L15.1 28.7201L14.392 27.4598L17.5581 21.195L20.6289 27.3868L19.8802 28.7197ZM31.1744 31.4389L30.361 29.9892C30.2063 29.7132 29.7527 29.7132 29.5984 29.9892L28.7855 31.4389L27.9717 29.9892C27.8943 29.8514 27.7482 29.7657 27.5903 29.7657C27.4324 29.7657 27.2864 29.851 27.2089 29.9887L26.3942 31.4393L25.6862 30.179L28.8501 23.9176L31.9047 30.1375L31.1744 31.4389Z" fill="white"/>
</g>
<defs>
<clipPath id="clip0_217_2785">
<rect width="35" height="35" fill="white"/>
</clipPath>
</defs>
</svg>
