<svg width="138" height="140" fill="none" xmlns="http://www.w3.org/2000/svg"><path d="M50.193 61.455c-.677 0-1.226.557-1.226 1.244v3.109c0 .687.55 1.244 1.226 1.244.677 0 1.226-.557 1.226-1.244v-3.11c0-.686-.549-1.243-1.226-1.243Z" fill="#00BF80"/><path d="M50.193 61.455c-.677 0-1.226.557-1.226 1.244v3.109c0 .687.55 1.244 1.226 1.244.677 0 1.226-.557 1.226-1.244v-3.11c0-.686-.549-1.243-1.226-1.243Z" fill="#000" fill-opacity=".2"/><path d="M50.193 50.884c-.678 0-1.226.557-1.226 1.244v3.11c0 .686.548 1.243 1.226 1.243.677 0 1.226-.557 1.226-1.244v-3.109c0-.687-.55-1.244-1.226-1.244Z" fill="#00BF80"/><path d="M50.193 50.884c-.678 0-1.226.557-1.226 1.244v3.11c0 .686.548 1.243 1.226 1.243.677 0 1.226-.557 1.226-1.244v-3.109c0-.687-.55-1.244-1.226-1.244Z" fill="#000" fill-opacity=".2"/><path d="M87.782 61.455c-.677 0-1.226.557-1.226 1.244v3.109c0 .687.549 1.244 1.226 1.244.677 0 1.226-.557 1.226-1.244v-3.11c0-.686-.549-1.243-1.226-1.243Z" fill="#00BF80"/><path d="M87.782 61.455c-.677 0-1.226.557-1.226 1.244v3.109c0 .687.549 1.244 1.226 1.244.677 0 1.226-.557 1.226-1.244v-3.11c0-.686-.549-1.243-1.226-1.243Z" fill="#000" fill-opacity=".2"/><path d="M87.782 50.884c-.677 0-1.226.557-1.226 1.244v3.11c0 .686.55 1.243 1.226 1.243.677 0 1.226-.557 1.226-1.244v-3.109c0-.687-.549-1.244-1.226-1.244Z" fill="#00BF80"/><path d="M87.782 50.884c-.677 0-1.226.557-1.226 1.244v3.11c0 .686.55 1.243 1.226 1.243.677 0 1.226-.557 1.226-1.244v-3.109c0-.687-.549-1.244-1.226-1.244Z" fill="#000" fill-opacity=".2"/><path d="M91.337 88.505h-44.7c-.678 0-1.227.557-1.227 1.244 0 .687.55 1.243 1.227 1.243h44.7c.677 0 1.226-.556 1.226-1.243s-.549-1.244-1.226-1.244Z" fill="#00BF80"/><path d="M91.337 88.505h-44.7c-.678 0-1.227.557-1.227 1.244 0 .687.55 1.243 1.227 1.243h44.7c.677 0 1.226-.556 1.226-1.243s-.549-1.244-1.226-1.244Z" fill="#000" fill-opacity=".2"/><path d="M115.196 57.214c4.063 0 7.356-3.341 7.356-7.463v-13.27c0-4.123-3.293-7.464-7.356-7.464h-1.778V11.355a1.72 1.72 0 0 0 0-.248 1.24 1.24 0 0 0-.368-.585l-.196-.124a.613.613 0 0 0-.22-.112.181.181 0 0 0-.086 0H91.215V5.51C91.202 2.468 88.77.007 85.772 0H52.203c-2.996.007-5.424 2.47-5.43 5.51v4.701H25.512a.183.183 0 0 0-.086 0 .62.62 0 0 0-.22.112l-.197.125c-.17.158-.298.36-.367.584a1.781 1.781 0 0 0 0 .25v17.735h-1.84c-4.062 0-7.356 3.341-7.356 7.463v13.296c0 4.122 3.294 7.463 7.357 7.463h1.777v12.724h-1.777c-4.063 0-7.356 3.34-7.356 7.462v17.028c0 4.121 3.293 7.462 7.356 7.462h1.777v5.685l-2.918-.038c-3.369.041-6.09 2.801-6.13 6.219v15.759c.04 3.418 2.761 6.178 6.13 6.219h20.843v2.997c0 .687.549 1.244 1.226 1.244h7.356c.677 0 1.226-.557 1.226-1.244v-2.997h32.44v2.997c0 .687.549 1.244 1.226 1.244h7.356c.677 0 1.226-.557 1.226-1.244v-2.997h21.75c3.393-.007 6.151-2.777 6.191-6.219v-15.697a6.278 6.278 0 0 0-1.067-3.507 6.101 6.101 0 0 0-5.1-2.736h-2.918v-5.722h1.778c4.063 0 7.356-3.341 7.356-7.463V77.388c0-4.122-3.293-7.463-7.356-7.463h-1.778V57.214h1.778Zm-1.778-25.709h1.753c2.709 0 4.904 2.227 4.904 4.975v.56h-6.657v-5.535ZM49.224 5.51c0-1.67 1.334-3.022 2.98-3.022h33.568c1.647 0 2.984 1.35 2.991 3.022v4.701H49.224V5.51Zm61.448 7.189L98.988 62.077h-4.034V37.985h2.636c.677 0 1.226-.557 1.226-1.244 0-.687-.549-1.243-1.226-1.243H77.974c-.677 0-1.226.556-1.226 1.243s.55 1.244 1.226 1.244h2.636v24.092H57.316V37.985h2.636c.677 0 1.226-.557 1.226-1.244 0-.687-.55-1.243-1.226-1.243H40.336c-.678 0-1.226.556-1.226 1.243s.548 1.244 1.226 1.244h2.636v24.092h-3.936L27.303 12.7h83.369Zm-18.17 25.286v32.19l-4.72 3.942-4.72-3.943V37.985h9.44Zm-37.59 0v32.19l-4.72 3.942-4.72-3.943V37.985h9.44ZM27.034 21.978l9.809 41.641c.138.57.648.963 1.226.946h4.904v6.219c-.001.37.16.72.44.957l5.947 4.975c.22.186.498.287.785.287.282-.003.555-.104.772-.287l5.959-4.975a1.25 1.25 0 0 0 .44-.957v-6.22H80.61v6.22c0 .37.161.72.442.957l5.958 4.975c.217.183.49.284.772.287.287 0 .564-.101.785-.287l5.946-4.975c.28-.236.442-.587.441-.957v-6.22h4.905a1.23 1.23 0 0 0 1.226-.945l9.808-41.641v85.584h-9.048V81.256c0-.687-.549-1.244-1.226-1.244H37.356c-.677 0-1.226.557-1.226 1.244v26.306h-9.097V21.978Zm-2.476 32.748h-1.753c-2.709 0-4.904-2.227-4.904-4.975V39.49h6.657v15.236Zm-6.633-17.724v-.522c0-2.738 2.18-4.961 4.88-4.975h1.777v5.497h-6.657Zm6.633 62.389h-1.753c-2.709 0-4.904-2.228-4.904-4.976V80.423h6.657V99.39Zm-6.633-21.456v-.547c.02-2.724 2.195-4.924 4.88-4.938h1.777v5.485h-6.657Zm0 35.908c.007-2.092 1.677-3.786 3.74-3.793h5.7l-9.44 14.527v-10.734Zm24.545 19.553H30.515l11.954-18.421v18.421Zm0-22.936-14.896 22.936h-5.91c-2.062-.007-3.732-1.702-3.739-3.794h.061v-.498l12.31-19.054H42.47v.41Zm7.405 27.177H44.97v-14.764h4.904v14.764Zm-4.953-17.251v-14.777h4.904v14.777H44.92Zm7.356-1.456v-8.88h5.774l-5.774 8.88Zm.049 14.466v-9.938l8.705-13.408h12.432L58.31 133.396h-5.983Zm32.428.012h-8.14l8.14-12.537v12.537Zm0-17.065L73.72 133.396l-12.407-.063 15.092-23.283h8.349v6.293Zm7.417 21.306h-4.904v-14.776h4.904v14.776Zm-4.965-17.263v-14.777h4.904v14.777h-4.904Zm6.191-17.264h-7.356c-.677 0-1.226.557-1.226 1.244v3.196h-32.49v-3.196c0-.687-.549-1.244-1.226-1.244h-7.356c-.677 0-1.226.557-1.226 1.244v3.196h-3.936V82.5h60.81l-.06 25.062h-4.708v-3.196c0-.687-.55-1.244-1.227-1.244Zm10.74 6.928-9.513 14.739-.062-14.739h9.575Zm15.914 19.564c-.04 2.069-1.701 3.726-3.739 3.732h-8.95l12.689-19.503v15.771Zm-3.739-19.564c.96.005 1.881.383 2.574 1.057l-14.467 22.289h-9.808v-4.055l12.53-19.291h9.171Zm3.739-15.597c-.02 2.723-2.195 4.924-4.88 4.938h-1.777V80.423h6.657v14.03Zm-4.88-22.003c2.709 0 4.904 2.227 4.904 4.975v.548h-6.657V72.45h1.753Zm-1.777-17.724V39.49h6.657v10.286c-.014 2.728-2.19 4.937-4.88 4.95h-1.777Z" fill="#00BF80"/><path d="M115.196 57.214c4.063 0 7.356-3.341 7.356-7.463v-13.27c0-4.123-3.293-7.464-7.356-7.464h-1.778V11.355a1.72 1.72 0 0 0 0-.248 1.24 1.24 0 0 0-.368-.585l-.196-.124a.613.613 0 0 0-.22-.112.181.181 0 0 0-.086 0H91.215V5.51C91.202 2.468 88.77.007 85.772 0H52.203c-2.996.007-5.424 2.47-5.43 5.51v4.701H25.512a.183.183 0 0 0-.086 0 .62.62 0 0 0-.22.112l-.197.125c-.17.158-.298.36-.367.584a1.781 1.781 0 0 0 0 .25v17.735h-1.84c-4.062 0-7.356 3.341-7.356 7.463v13.296c0 4.122 3.294 7.463 7.357 7.463h1.777v12.724h-1.777c-4.063 0-7.356 3.34-7.356 7.462v17.028c0 4.121 3.293 7.462 7.356 7.462h1.777v5.685l-2.918-.038c-3.369.041-6.09 2.801-6.13 6.219v15.759c.04 3.418 2.761 6.178 6.13 6.219h20.843v2.997c0 .687.549 1.244 1.226 1.244h7.356c.677 0 1.226-.557 1.226-1.244v-2.997h32.44v2.997c0 .687.549 1.244 1.226 1.244h7.356c.677 0 1.226-.557 1.226-1.244v-2.997h21.75c3.393-.007 6.151-2.777 6.191-6.219v-15.697a6.278 6.278 0 0 0-1.067-3.507 6.101 6.101 0 0 0-5.1-2.736h-2.918v-5.722h1.778c4.063 0 7.356-3.341 7.356-7.463V77.388c0-4.122-3.293-7.463-7.356-7.463h-1.778V57.214h1.778Zm-1.778-25.709h1.753c2.709 0 4.904 2.227 4.904 4.975v.56h-6.657v-5.535ZM49.224 5.51c0-1.67 1.334-3.022 2.98-3.022h33.568c1.647 0 2.984 1.35 2.991 3.022v4.701H49.224V5.51Zm61.448 7.189L98.988 62.077h-4.034V37.985h2.636c.677 0 1.226-.557 1.226-1.244 0-.687-.549-1.243-1.226-1.243H77.974c-.677 0-1.226.556-1.226 1.243s.55 1.244 1.226 1.244h2.636v24.092H57.316V37.985h2.636c.677 0 1.226-.557 1.226-1.244 0-.687-.55-1.243-1.226-1.243H40.336c-.678 0-1.226.556-1.226 1.243s.548 1.244 1.226 1.244h2.636v24.092h-3.936L27.303 12.7h83.369Zm-18.17 25.286v32.19l-4.72 3.942-4.72-3.943V37.985h9.44Zm-37.59 0v32.19l-4.72 3.942-4.72-3.943V37.985h9.44ZM27.034 21.978l9.809 41.641c.138.57.648.963 1.226.946h4.904v6.219c-.001.37.16.72.44.957l5.947 4.975c.22.186.498.287.785.287.282-.003.555-.104.772-.287l5.959-4.975a1.25 1.25 0 0 0 .44-.957v-6.22H80.61v6.22c0 .37.161.72.442.957l5.958 4.975c.217.183.49.284.772.287.287 0 .564-.101.785-.287l5.946-4.975c.28-.236.442-.587.441-.957v-6.22h4.905a1.23 1.23 0 0 0 1.226-.945l9.808-41.641v85.584h-9.048V81.256c0-.687-.549-1.244-1.226-1.244H37.356c-.677 0-1.226.557-1.226 1.244v26.306h-9.097V21.978Zm-2.476 32.748h-1.753c-2.709 0-4.904-2.227-4.904-4.975V39.49h6.657v15.236Zm-6.633-17.724v-.522c0-2.738 2.18-4.961 4.88-4.975h1.777v5.497h-6.657Zm6.633 62.389h-1.753c-2.709 0-4.904-2.228-4.904-4.976V80.423h6.657V99.39Zm-6.633-21.456v-.547c.02-2.724 2.195-4.924 4.88-4.938h1.777v5.485h-6.657Zm0 35.908c.007-2.092 1.677-3.786 3.74-3.793h5.7l-9.44 14.527v-10.734Zm24.545 19.553H30.515l11.954-18.421v18.421Zm0-22.936-14.896 22.936h-5.91c-2.062-.007-3.732-1.702-3.739-3.794h.061v-.498l12.31-19.054H42.47v.41Zm7.405 27.177H44.97v-14.764h4.904v14.764Zm-4.953-17.251v-14.777h4.904v14.777H44.92Zm7.356-1.456v-8.88h5.774l-5.774 8.88Zm.049 14.466v-9.938l8.705-13.408h12.432L58.31 133.396h-5.983Zm32.428.012h-8.14l8.14-12.537v12.537Zm0-17.065L73.72 133.396l-12.407-.063 15.092-23.283h8.349v6.293Zm7.417 21.306h-4.904v-14.776h4.904v14.776Zm-4.965-17.263v-14.777h4.904v14.777h-4.904Zm6.191-17.264h-7.356c-.677 0-1.226.557-1.226 1.244v3.196h-32.49v-3.196c0-.687-.549-1.244-1.226-1.244h-7.356c-.677 0-1.226.557-1.226 1.244v3.196h-3.936V82.5h60.81l-.06 25.062h-4.708v-3.196c0-.687-.55-1.244-1.227-1.244Zm10.74 6.928-9.513 14.739-.062-14.739h9.575Zm15.914 19.564c-.04 2.069-1.701 3.726-3.739 3.732h-8.95l12.689-19.503v15.771Zm-3.739-19.564c.96.005 1.881.383 2.574 1.057l-14.467 22.289h-9.808v-4.055l12.53-19.291h9.171Zm3.739-15.597c-.02 2.723-2.195 4.924-4.88 4.938h-1.777V80.423h6.657v14.03Zm-4.88-22.003c2.709 0 4.904 2.227 4.904 4.975v.548h-6.657V72.45h1.753Zm-1.777-17.724V39.49h6.657v10.286c-.014 2.728-2.19 4.937-4.88 4.95h-1.777Z" fill="#000" fill-opacity=".2"/></svg>