<svg width="110" height="110" fill="none" xmlns="http://www.w3.org/2000/svg"><g clip-path="url(#a)"><path d="M55.047 9.792a9.336 9.336 0 0 0 0 18.673 9.392 9.392 0 0 0 9.337-9.337 9.336 9.336 0 0 0-9.337-9.336Zm-.093 16.805a7.525 7.525 0 0 1-7.422-7.469h-.047a7.47 7.47 0 1 1 7.469 7.47Z" fill="#00BF80"/><path d="M55.047 9.792a9.336 9.336 0 0 0 0 18.673 9.392 9.392 0 0 0 9.337-9.337 9.336 9.336 0 0 0-9.337-9.336Zm-.093 16.805a7.525 7.525 0 0 1-7.422-7.469h-.047a7.47 7.47 0 1 1 7.469 7.47Z" fill="#000" fill-opacity=".2"/><path d="M109.729 21.959 96.789 8.982a.935.935 0 0 0-.28-.187 1.066 1.066 0 0 0-.299-.066h-.13a.93.93 0 0 0-.234 0h-.093a1.237 1.237 0 0 0-.27.178l-12.68 12.781h-9.13c.22-.864.345-1.75.373-2.642C74.046 8.527 65.519 0 55 0S35.954 8.527 35.954 19.046c.024.892.15 1.778.373 2.642h-9.13L14.537 8.982a.934.934 0 0 0-.271-.187 1.148 1.148 0 0 0-.299-.066h-.103a.922.922 0 0 0-.224 0h-.093a.932.932 0 0 0-.27.178L.27 21.959a.934.934 0 0 0-.271.663v64.934a.934.934 0 0 0 .579.868.936.936 0 0 0 .355.065.934.934 0 0 0 .663-.27L13.92 75.904l12.23 12.315a.934.934 0 0 0 .664.27h56.372a.934.934 0 0 0 .663-.27l12.277-12.315 12.278 12.315a.931.931 0 0 0 .662.27.935.935 0 0 0 .355-.065.933.933 0 0 0 .579-.868V22.622a.935.935 0 0 0-.271-.663Zm-96.742 13.64a.933.933 0 0 0-1.578.075l-2.371 4.248a.934.934 0 0 0 .354 1.27c.142.075.298.116.458.121a.933.933 0 0 0 .821-.486l2.316-4.135v37.503L1.867 85.334v-28.86l2.222-3.968a.94.94 0 1 0-1.634-.933l-.588 1.083V23.005l11.12-11.101v23.695ZM25.88 85.334 14.854 74.195V38.437l.523 1.074a.933.933 0 0 0 .84.532c.139-.004.275-.036.402-.093a.934.934 0 0 0 .43-1.248v-.003l-1.616-3.333a.934.934 0 0 0-.579-.448V11.904l11.026 11.1v62.33ZM55 1.886c9.476.01 17.158 7.684 17.179 17.16 0 5.163-6.302 17.03-16.441 30.95a.813.813 0 0 1-.738.364.803.803 0 0 1-.728-.355c-10.149-14.042-16.45-25.908-16.45-30.959.02-9.476 7.702-17.15 17.178-17.16Zm27.253 55.028L80.6 54.365a.935.935 0 1 0-1.568 1.018l3.22 4.948v26.291H27.748V50.64l.243.55a.934.934 0 0 0 .868.533.934.934 0 0 0 .85-1.326l-1.96-4.276V23.555h9.102c2.064 6.358 7.684 16.162 15.919 27.57a2.8 2.8 0 0 0 4.472 0c8.253-11.352 13.883-21.156 15.927-27.57h9.085v33.359Zm12.94 17.281L84.12 85.334V60.275a.84.84 0 0 0 0-.373V23.005l11.073-11.101v37.345l-3.52-2.4a.934.934 0 0 0-1.055 1.54l4.575 3.129v22.677Zm12.94-41.854c-.095.069-.18.15-.252.243l-2.465 3.585a.934.934 0 0 0 .765 1.466.933.933 0 0 0 .766-.411l1.176-1.7v49.81L97.06 74.233V51.61l1.989-2.894a.934.934 0 0 0-1.534-1.066l-.007.01-.448.654v-36.41l11.073 11.1v9.337Z" fill="#00BF80"/><path d="M109.729 21.959 96.789 8.982a.935.935 0 0 0-.28-.187 1.066 1.066 0 0 0-.299-.066h-.13a.93.93 0 0 0-.234 0h-.093a1.237 1.237 0 0 0-.27.178l-12.68 12.781h-9.13c.22-.864.345-1.75.373-2.642C74.046 8.527 65.519 0 55 0S35.954 8.527 35.954 19.046c.024.892.15 1.778.373 2.642h-9.13L14.537 8.982a.934.934 0 0 0-.271-.187 1.148 1.148 0 0 0-.299-.066h-.103a.922.922 0 0 0-.224 0h-.093a.932.932 0 0 0-.27.178L.27 21.959a.934.934 0 0 0-.271.663v64.934a.934.934 0 0 0 .579.868.936.936 0 0 0 .355.065.934.934 0 0 0 .663-.27L13.92 75.904l12.23 12.315a.934.934 0 0 0 .664.27h56.372a.934.934 0 0 0 .663-.27l12.277-12.315 12.278 12.315a.931.931 0 0 0 .662.27.935.935 0 0 0 .355-.065.933.933 0 0 0 .579-.868V22.622a.935.935 0 0 0-.271-.663Zm-96.742 13.64a.933.933 0 0 0-1.578.075l-2.371 4.248a.934.934 0 0 0 .354 1.27c.142.075.298.116.458.121a.933.933 0 0 0 .821-.486l2.316-4.135v37.503L1.867 85.334v-28.86l2.222-3.968a.94.94 0 1 0-1.634-.933l-.588 1.083V23.005l11.12-11.101v23.695ZM25.88 85.334 14.854 74.195V38.437l.523 1.074a.933.933 0 0 0 .84.532c.139-.004.275-.036.402-.093a.934.934 0 0 0 .43-1.248v-.003l-1.616-3.333a.934.934 0 0 0-.579-.448V11.904l11.026 11.1v62.33ZM55 1.886c9.476.01 17.158 7.684 17.179 17.16 0 5.163-6.302 17.03-16.441 30.95a.813.813 0 0 1-.738.364.803.803 0 0 1-.728-.355c-10.149-14.042-16.45-25.908-16.45-30.959.02-9.476 7.702-17.15 17.178-17.16Zm27.253 55.028L80.6 54.365a.935.935 0 1 0-1.568 1.018l3.22 4.948v26.291H27.748V50.64l.243.55a.934.934 0 0 0 .868.533.934.934 0 0 0 .85-1.326l-1.96-4.276V23.555h9.102c2.064 6.358 7.684 16.162 15.919 27.57a2.8 2.8 0 0 0 4.472 0c8.253-11.352 13.883-21.156 15.927-27.57h9.085v33.359Zm12.94 17.281L84.12 85.334V60.275a.84.84 0 0 0 0-.373V23.005l11.073-11.101v37.345l-3.52-2.4a.934.934 0 0 0-1.055 1.54l4.575 3.129v22.677Zm12.94-41.854c-.095.069-.18.15-.252.243l-2.465 3.585a.934.934 0 0 0 .765 1.466.933.933 0 0 0 .766-.411l1.176-1.7v49.81L97.06 74.233V51.61l1.989-2.894a.934.934 0 0 0-1.534-1.066l-.007.01-.448.654v-36.41l11.073 11.1v9.337Z" fill="#000" fill-opacity=".2"/><path d="M7.992 43.616a.934.934 0 0 0-1.27.355l-2.016 3.603a.933.933 0 0 0 .363 1.27h.001c.137.078.291.12.448.121a.933.933 0 0 0 .822-.485l1.98-3.594a.934.934 0 0 0-.328-1.27Z" fill="#00BF80"/><path d="M7.992 43.616a.934.934 0 0 0-1.27.355l-2.016 3.603a.933.933 0 0 0 .363 1.27h.001c.137.078.291.12.448.121a.933.933 0 0 0 .822-.485l1.98-3.594a.934.934 0 0 0-.328-1.27Z" fill="#000" fill-opacity=".2"/><path d="M22.527 45.498h-2.222l-1.176-2.427a.934.934 0 1 0-1.68.812l1.437 2.96c.158.32.483.523.84.522h2.802a.934.934 0 0 0 0-1.867Z" fill="#00BF80"/><path d="M22.527 45.498h-2.222l-1.176-2.427a.934.934 0 1 0-1.68.812l1.437 2.96c.158.32.483.523.84.522h2.802a.934.934 0 0 0 0-1.867Z" fill="#000" fill-opacity=".2"/><path d="m33.255 58.33-1.503-3.342a.936.936 0 0 0-1.709.765l1.503 3.343a.933.933 0 0 0 1.242.466.934.934 0 0 0 .467-1.232Z" fill="#00BF80"/><path d="m33.255 58.33-1.503-3.342a.936.936 0 0 0-1.709.765l1.503 3.343a.933.933 0 0 0 1.242.466.934.934 0 0 0 .467-1.232Z" fill="#000" fill-opacity=".2"/><path d="m37.027 66.718-1.867-4.052a.936.936 0 0 0-1.709.766l1.877 4.052c.15.334.482.55.85.55a.935.935 0 0 0 .849-1.316Z" fill="#00BF80"/><path d="m37.027 66.718-1.867-4.052a.936.936 0 0 0-1.709.766l1.877 4.052c.15.334.482.55.85.55a.935.935 0 0 0 .849-1.316Z" fill="#000" fill-opacity=".2"/><path d="M42.167 73.204a.934.934 0 0 0-1.173-.156l-.821.635-1.289-2.876a.936.936 0 0 0-1.708.766h-.01l1.774 3.95a.934.934 0 0 0 .626.522c.28.071.575.009.803-.168l1.755-1.354a.934.934 0 0 0 .043-1.32Z" fill="#00BF80"/><path d="M42.167 73.204a.934.934 0 0 0-1.173-.156l-.821.635-1.289-2.876a.936.936 0 0 0-1.708.766h-.01l1.774 3.95a.934.934 0 0 0 .626.522c.28.071.575.009.803-.168l1.755-1.354a.934.934 0 0 0 .043-1.32Z" fill="#000" fill-opacity=".2"/><path d="M48.395 68.538a.936.936 0 0 0-1.312-.173l-3.127 2.4a.934.934 0 0 0 .57 1.68c.205 0 .406-.07.569-.196l3.127-2.4a.935.935 0 0 0 .173-1.311Z" fill="#00BF80"/><path d="M48.395 68.538a.936.936 0 0 0-1.312-.173l-3.127 2.4a.934.934 0 0 0 .57 1.68c.205 0 .406-.07.569-.196l3.127-2.4a.935.935 0 0 0 .173-1.311Z" fill="#000" fill-opacity=".2"/><path d="M56.087 62.541a.933.933 0 0 0-1.227-.157l-3.37 2.586a.934.934 0 0 0 .57 1.69.938.938 0 0 0 .57-.197L56 63.86a.933.933 0 0 0 .087-1.318Z" fill="#00BF80"/><path d="M56.087 62.541a.933.933 0 0 0-1.227-.157l-3.37 2.586a.934.934 0 0 0 .57 1.69.938.938 0 0 0 .57-.197L56 63.86a.933.933 0 0 0 .087-1.318Z" fill="#000" fill-opacity=".2"/><path d="M63.788 56.516a.933.933 0 0 0-1.076-.128l-3.978 3.016a.934.934 0 0 0 1.167 1.456l3.95-3.025a.934.934 0 0 0-.063-1.319Z" fill="#00BF80"/><path d="M63.788 56.516a.933.933 0 0 0-1.076-.128l-3.978 3.016a.934.934 0 0 0 1.167 1.456l3.95-3.025a.934.934 0 0 0-.063-1.319Z" fill="#000" fill-opacity=".2"/><path d="M71.605 50.854a.934.934 0 0 0-1.388-.178l-3.734 2.8a.934.934 0 0 0 .57 1.672c.206 0 .406-.07.569-.196l3.734-2.801a.933.933 0 0 0 .25-1.297Z" fill="#00BF80"/><path d="M71.605 50.854a.934.934 0 0 0-1.388-.178l-3.734 2.8a.934.934 0 0 0 .57 1.672c.206 0 .406-.07.569-.196l3.734-2.801a.933.933 0 0 0 .25-1.297Z" fill="#000" fill-opacity=".2"/><path d="m78.163 50.638-2.11-3.221a.877.877 0 0 0-.626-.411.933.933 0 0 0-.718.177l-1.56 1.177a.94.94 0 0 0 1.14 1.493l.756-.578 1.55 2.39a.937.937 0 1 0 1.568-1.027Z" fill="#00BF80"/><path d="m78.163 50.638-2.11-3.221a.877.877 0 0 0-.626-.411.933.933 0 0 0-.718.177l-1.56 1.177a.94.94 0 0 0 1.14 1.493l.756-.578 1.55 2.39a.937.937 0 1 0 1.568-1.027Z" fill="#000" fill-opacity=".2"/><path d="M89.722 49.856a.934.934 0 0 0-1.288.29l-2.381 3.734a.934.934 0 0 0 .289 1.288.89.89 0 0 0 .495.15.933.933 0 0 0 .794-.44l2.38-3.734a.934.934 0 0 0-.289-1.288Z" fill="#00BF80"/><path d="M89.722 49.856a.934.934 0 0 0-1.288.29l-2.381 3.734a.934.934 0 0 0 .289 1.288.89.89 0 0 0 .495.15.933.933 0 0 0 .794-.44l2.38-3.734a.934.934 0 0 0-.289-1.288Z" fill="#000" fill-opacity=".2"/><path d="M104.409 39.296a.934.934 0 0 0-1.298.233l-2.661 3.865a.933.933 0 0 0 .243 1.298.931.931 0 0 0 .523.168c.31 0 .601-.153.774-.41l2.661-3.856a.933.933 0 0 0-.242-1.298Z" fill="#00BF80"/><path d="M104.409 39.296a.934.934 0 0 0-1.298.233l-2.661 3.865a.933.933 0 0 0 .243 1.298.931.931 0 0 0 .523.168c.31 0 .601-.153.774-.41l2.661-3.856a.933.933 0 0 0-.242-1.298Z" fill="#000" fill-opacity=".2"/><path d="M76.371 80.27h-8.103a.934.934 0 0 0 0 1.867h8.103a.934.934 0 0 0 0-1.868Z" fill="#00BF80"/><path d="M76.371 80.27h-8.103a.934.934 0 0 0 0 1.867h8.103a.934.934 0 0 0 0-1.868Z" fill="#000" fill-opacity=".2"/><path d="M76.371 76.07h-8.103a.934.934 0 0 0 0 1.868h8.103a.934.934 0 0 0 0-1.868Z" fill="#00BF80"/><path d="M76.371 76.07h-8.103a.934.934 0 0 0 0 1.868h8.103a.934.934 0 0 0 0-1.868Z" fill="#000" fill-opacity=".2"/></g><defs><clipPath id="a"><path fill="#fff" d="M0 0h110v110H0z"/></clipPath></defs></svg>