<svg width="31" height="31" fill="none" xmlns="http://www.w3.org/2000/svg"><path d="M28.417 3.875H2.583A2.586 2.586 0 0 0 0 6.458v18.084a2.586 2.586 0 0 0 2.583 2.583h25.834A2.586 2.586 0 0 0 31 24.542V6.458a2.586 2.586 0 0 0-2.583-2.583ZM2.583 5.167h25.834c.095 0 .179.034.268.054-2.236 2.047-9.652 8.831-12.248 11.17-.203.182-.53.4-.937.4-.407 0-.734-.218-.938-.401C11.967 14.052 4.551 7.267 2.315 5.22c.09-.02.173-.054.268-.054ZM1.292 24.542V6.458c0-.126.038-.241.072-.357 1.712 1.567 6.886 6.3 10.242 9.352-3.345 2.873-8.52 7.78-10.246 9.425-.03-.11-.068-.217-.068-.336Zm27.125 1.291H2.583c-.103 0-.195-.036-.29-.059 1.782-1.7 6.99-6.635 10.276-9.446.429.39.82.743 1.128 1.021.533.48 1.156.734 1.803.734s1.27-.253 1.802-.733l1.128-1.022c3.286 2.811 8.494 7.746 10.278 9.446-.096.023-.188.06-.291.06Zm1.291-1.291c0 .119-.037.226-.068.336-1.726-1.646-6.901-6.552-10.245-9.425 3.355-3.051 8.529-7.784 10.241-9.352.034.116.072.23.072.357v18.084Z" fill="#000"/></svg>