<svg width="27" height="27" fill="none" xmlns="http://www.w3.org/2000/svg"><path d="M19.691 0H7.31C3.279 0 0 3.279 0 7.309v12.383C0 23.722 3.279 27 7.309 27h12.383C23.722 27 27 23.721 27 19.692V7.309C27 3.279 23.721 0 19.691 0Zm5.726 19.692a5.732 5.732 0 0 1-5.726 5.725H7.31a5.732 5.732 0 0 1-5.726-5.726V7.31A5.732 5.732 0 0 1 7.31 1.584h12.383a5.732 5.732 0 0 1 5.725 5.726v12.383Z" fill="#000"/><path d="M13.5 6.117c-4.071 0-7.383 3.312-7.383 7.383 0 4.07 3.312 7.382 7.383 7.382 4.07 0 7.382-3.311 7.382-7.382S17.571 6.117 13.5 6.117Zm0 13.182a5.806 5.806 0 0 1-5.8-5.8c0-3.197 2.602-5.799 5.8-5.799s5.8 2.602 5.8 5.8-2.602 5.8-5.8 5.8Zm7.56-15.803a2.184 2.184 0 0 0-2.181 2.182c0 1.203.978 2.181 2.181 2.181a2.184 2.184 0 0 0 2.182-2.181 2.184 2.184 0 0 0-2.182-2.182Zm0 2.78a.6.6 0 1 1 .002-1.199.6.6 0 0 1-.002 1.2Z" fill="#000"/></svg>