<svg width="36" height="21" fill="none" xmlns="http://www.w3.org/2000/svg"><path d="M33.75 20.73h-4.376a2.179 2.179 0 0 1-1.723-.838l-4.265-5.442a.729.729 0 0 0-1.304.447v2.187c0 2.015-1.96 3.646-4.375 3.646a4.934 4.934 0 0 1-2.67-.756C8.91 16.054 4.753 11.104 1.144 3.43A2.188 2.188 0 0 1 3.123.313h4.375a2.188 2.188 0 0 1 2.014 1.321l.493 1.149a18.759 18.759 0 0 0 2.962 4.758.2.2 0 0 0 .155.064.191.191 0 0 0 .21-.192V4.56A2.187 2.187 0 0 1 14.06.313h5.834c1.208 0 2.187.979 2.187 2.187v5.105a.729.729 0 0 0 1.35.382l4.073-6.626a2.17 2.17 0 0 1 1.87-1.048h4.374a2.188 2.188 0 0 1 1.814 3.409l-4.594 6.37a.73.73 0 0 0 0 .858l4.558 6.317a2.188 2.188 0 0 1-1.778 3.463Zm-10.94-8.02a2.18 2.18 0 0 1 1.723.839l4.266 5.441a.73.73 0 0 0 .574.283h4.375a.729.729 0 0 0 .593-1.158l-4.558-6.317a2.187 2.187 0 0 1 0-2.56l4.585-6.354a.73.73 0 0 0-.62-1.112h-4.375a.729.729 0 0 0-.62.346L24.68 8.744a2.188 2.188 0 0 1-4.056-1.14V2.5a.73.73 0 0 0-.73-.73h-5.833a.73.73 0 1 0 0 1.46h.729v4.183a1.668 1.668 0 0 1-2.926 1.076 20.214 20.214 0 0 1-3.19-5.123l-.502-1.148a.73.73 0 0 0-.674-.447H3.123a.73.73 0 0 0-.656 1.04c3.527 7.5 7.4 12.122 13.362 15.941a3.529 3.529 0 0 0 1.878.52c1.604 0 2.917-.985 2.917-2.188v-2.188c0-1.208.979-2.187 2.187-2.187Z" fill="#000"/></svg>