<svg width="19" height="33" fill="none" xmlns="http://www.w3.org/2000/svg"><path d="M15.683 5.899h1.033a2 2 0 0 0 2-2V2.003a2 2 0 0 0-2-2h-3.512c-.46-.02-6.066-.134-7.519 5.764-.02.062-.485 1.464-.485 4.74l-3.047.01a2 2 0 0 0-1.993 2v2.184a2 2 0 0 0 2.006 2l3.04-.01v14.31a2 2 0 0 0 2 2h3.71a2 2 0 0 0 2-2V16.706h3.102a2 2 0 0 0 2-2v-2.2a2 2 0 0 0-2-2h-3.103v-1.95c0-1.213.48-2.657 2.768-2.657Zm.06 5.965a1 1 0 0 1 1 1v1.483a1 1 0 0 1-1 1H11.64V30.9a1 1 0 0 1-1 1H7.483a1 1 0 0 1-1-1V15.33l-4.045.012a1 1 0 0 1-1.003-1v-1.467a1 1 0 0 1 .997-1l4.063-.013-.013-.69c-.066-3.47.399-4.93.42-5 1.254-5.08 6.042-4.825 6.247-4.811h3.292a1 1 0 0 1 1 1v1.18a1 1 0 0 1-1 1h-.758c-2.98 0-4.043 2.074-4.043 4.014v3.309h4.102Z" fill="#000"/></svg>